<?xml version="1.0" encoding="UTF-8"?>
<svg id="Layer_2" data-name="Layer 2" xmlns="http://www.w3.org/2000/svg" viewBox="0 0 1040 1136">
  <defs>
    <style>
      .cls-1 {
        fill: #29a329;
        isolation: isolate;
        stroke: #29a329;
        stroke-miterlimit: 10;
        stroke-width: 16px;
      }
    </style>
  </defs>
  <g id="Layer_1-2" data-name="Layer 1">
    <g>
      <path class="cls-1" d="M658.85,544.88h0c-14.61-1.13-27.35,9.87-28.48,24.58l-18.29,239.89-65.19-93.6c-.53-.76-1.1-1.49-1.69-2.18l50.93-88.79c5.18-9.02,2.1-20.56-6.86-25.77-8.97-5.21-20.43-2.12-25.61,6.91l-131.84,229.85-22.22-256.35c-1.27-14.69-14.14-25.56-28.73-24.27h0c-14.59,1.28-25.39,14.23-24.12,28.92l27.22,313.96c1.27,14.69,14.14,25.56,28.73,24.27,3.84-.34,7.41-1.5,10.57-3.27,3.14-1.42,5.91-3.73,7.92-6.8,1.51-1.93,2.76-4.06,3.71-6.35l81.13-141.43,94.67,135.93s.07,.09,.11,.14c4.37,6.59,11.57,11.18,20.03,11.83,14.61,1.13,27.35-9.87,28.48-24.58l23.96-314.23c1.12-14.7-9.81-27.53-24.42-28.66Z"/>
      <path class="cls-1" d="M251.05,1058.69H788.95c4.57,0,8.52-1.88,11.54-4.92,4.65-4.68,7.72-11.6,8.71-19.39l73.57-577.26H157.23l73.57,577.26c.99,7.79,4.07,14.71,8.71,19.39,3.02,3.04,6.97,4.92,11.54,4.92M93.1,387.82H946.9c4.43,0,8.49-1.85,11.44-4.83,2.96-2.98,4.8-7.06,4.8-11.52s-1.84-8.54-4.8-11.52c-2.96-2.98-7.01-4.83-11.44-4.83H93.1c-4.43,0-8.49,1.85-11.44,4.83-2.96,2.98-4.8,7.06-4.8,11.52s1.84,8.54,4.8,11.52c2.96,2.98,7.01,4.83,11.44,4.83Zm426.9,740.18H251.05c-24.2,0-44.74-9.65-60.22-25.23-15.24-15.34-25.14-36.64-28.08-59.72L88.06,456.97c-21.44-1.27-40.79-10.6-55.08-24.98-15.41-15.51-24.97-36.93-24.97-60.52s9.56-45.01,24.97-60.52c15.41-15.51,36.69-25.13,60.13-25.13h179.33v-28.63c0-68.56,27.84-130.86,72.7-176.01,44.85-45.15,106.76-73.17,174.87-73.17s130.02,28.02,174.87,73.17c43.97,44.25,71.58,104.99,72.66,171.95h-68.87c-1.07-47.83-20.96-91.22-52.47-122.95-32.41-32.62-77.08-52.86-126.19-52.86s-93.78,20.25-126.19,52.86c-32.41,32.62-52.52,77.58-52.52,127.01v28.63H946.9c23.44,0,44.72,9.63,60.13,25.13,15.41,15.51,24.97,36.93,24.97,60.52s-9.56,45.01-24.97,60.52c-14.29,14.39-33.65,23.71-55.08,24.98l-74.69,586.07c-2.94,23.09-12.84,44.38-28.08,59.72-15.48,15.58-36.03,25.23-60.22,25.23h-268.95Z"/>
    </g>
  </g>
</svg>